<svg width="20" height="22" viewBox="0 0 20 22" fill="none" xmlns="http://www.w3.org/2000/svg">
<path d="M17.403 5.78924H2.59701C2.43868 5.78924 2.28682 5.72825 2.17486 5.61967C2.0629 5.5111 2 5.36384 2 5.2103C2 5.05675 2.0629 4.90949 2.17486 4.80092C2.28682 4.69234 2.43868 4.63135 2.59701 4.63135H17.403C17.5613 4.63135 17.7132 4.69234 17.8251 4.80092C17.9371 4.90949 18 5.05675 18 5.2103C18 5.36384 17.9371 5.5111 17.8251 5.61967C17.7132 5.72825 17.5613 5.78924 17.403 5.78924Z" fill="#F8FCFF"/>
<path d="M17.403 11.5788H2.59701C2.43868 11.5788 2.28682 11.5178 2.17486 11.4092C2.0629 11.3006 2 11.1534 2 10.9998C2 10.8463 2.0629 10.699 2.17486 10.5905C2.28682 10.4819 2.43868 10.4209 2.59701 10.4209H17.403C17.5613 10.4209 17.7132 10.4819 17.8251 10.5905C17.9371 10.699 18 10.8463 18 10.9998C18 11.1534 17.9371 11.3006 17.8251 11.4092C17.7132 11.5178 17.5613 11.5788 17.403 11.5788Z" fill="#F8FCFF"/>
<path d="M13.5522 17.3683H2.44776C2.32901 17.3683 2.21512 17.3073 2.13115 17.1988C2.04717 17.0902 2 16.9429 2 16.7894C2 16.6359 2.04717 16.4886 2.13115 16.38C2.21512 16.2714 2.32901 16.2104 2.44776 16.2104H13.5522C13.671 16.2104 13.7849 16.2714 13.8689 16.38C13.9528 16.4886 14 16.6359 14 16.7894C14 16.9429 13.9528 17.0902 13.8689 17.1988C13.7849 17.3073 13.671 17.3683 13.5522 17.3683Z" fill="#F8FCFF"/>
</svg>
